<mxfile host="Electron" modified="2023-09-09T19:09:04.395Z" agent="Mozilla/5.0 (Windows NT 10.0; Win64; x64) AppleWebKit/537.36 (KHTML, like Gecko) draw.io/21.6.8 Chrome/114.0.5735.289 Electron/25.5.0 Safari/537.36" etag="a5XbbEvoWR8QBQMPcp34" version="21.6.8" type="device">
  <diagram id="prtHgNgQTEPvFCAcTncT" name="Page-1">
    <mxGraphModel dx="293" dy="2097" grid="1" gridSize="5" guides="1" tooltips="1" connect="1" arrows="1" fold="1" page="1" pageScale="1" pageWidth="1200" pageHeight="1920" background="none" math="0" shadow="0">
      <root>
        <mxCell id="0" />
        <mxCell id="1" parent="0" />
        <mxCell id="bg21X9tkaUSZAUKivtD--1" value="Gerencia General" style="rounded=0;whiteSpace=wrap;html=1;fontSize=5;" parent="1" vertex="1">
          <mxGeometry x="380" y="5" width="40" height="20" as="geometry" />
        </mxCell>
        <mxCell id="bg21X9tkaUSZAUKivtD--3" value="Servicios generales" style="rounded=0;whiteSpace=wrap;html=1;fontSize=5;" parent="1" vertex="1">
          <mxGeometry x="350" y="84.66" width="40" height="25" as="geometry" />
        </mxCell>
        <mxCell id="bg21X9tkaUSZAUKivtD--8" value="Contable" style="rounded=0;whiteSpace=wrap;html=1;fontSize=5;" parent="1" vertex="1">
          <mxGeometry x="575" y="80" width="40" height="25" as="geometry" />
        </mxCell>
        <mxCell id="bg21X9tkaUSZAUKivtD--9" value="Control de calidad" style="rounded=0;whiteSpace=wrap;html=1;fontSize=5;" parent="1" vertex="1">
          <mxGeometry x="270" y="149.66" width="40" height="25" as="geometry" />
        </mxCell>
        <mxCell id="bg21X9tkaUSZAUKivtD--10" value="Planeamiento y control de la producción" style="rounded=0;whiteSpace=wrap;html=1;fontSize=5;" parent="1" vertex="1">
          <mxGeometry x="270" y="119.66" width="40" height="25" as="geometry" />
        </mxCell>
        <mxCell id="bg21X9tkaUSZAUKivtD--11" value="Publicidad y Promociones" style="rounded=0;whiteSpace=wrap;html=1;fontSize=5;" parent="1" vertex="1">
          <mxGeometry x="432.5" y="84.66" width="40" height="25" as="geometry" />
        </mxCell>
        <mxCell id="bg21X9tkaUSZAUKivtD--16" value="Mantenimiento de planta de equipos" style="rounded=0;whiteSpace=wrap;html=1;fontSize=5;" parent="1" vertex="1">
          <mxGeometry x="270" y="89.66" width="40" height="25" as="geometry" />
        </mxCell>
        <mxCell id="bg21X9tkaUSZAUKivtD--18" value="" style="endArrow=none;html=1;rounded=0;" parent="1" edge="1">
          <mxGeometry width="50" height="50" relative="1" as="geometry">
            <mxPoint x="400" y="35" as="sourcePoint" />
            <mxPoint x="400" y="25" as="targetPoint" />
          </mxGeometry>
        </mxCell>
        <mxCell id="bg21X9tkaUSZAUKivtD--37" value="Gerencia de administración personal" style="rounded=0;whiteSpace=wrap;html=1;fontSize=5;" parent="1" vertex="1">
          <mxGeometry x="335" y="40" width="40" height="25" as="geometry" />
        </mxCell>
        <mxCell id="bg21X9tkaUSZAUKivtD--39" value="Gerencia de producción" style="rounded=0;whiteSpace=wrap;html=1;fontSize=5;" parent="1" vertex="1">
          <mxGeometry x="245" y="40" width="40" height="25" as="geometry" />
        </mxCell>
        <mxCell id="bg21X9tkaUSZAUKivtD--40" value="Gerencia de finanzas y control" style="rounded=0;whiteSpace=wrap;html=1;fontSize=5;" parent="1" vertex="1">
          <mxGeometry x="530" y="40" width="40" height="25" as="geometry" />
        </mxCell>
        <mxCell id="bg21X9tkaUSZAUKivtD--41" value="Gerencia comercial" style="rounded=0;whiteSpace=wrap;html=1;fontSize=5;" parent="1" vertex="1">
          <mxGeometry x="414" y="40" width="40" height="25" as="geometry" />
        </mxCell>
        <mxCell id="bg21X9tkaUSZAUKivtD--42" value="Compras" style="rounded=0;whiteSpace=wrap;html=1;fontSize=5;" parent="1" vertex="1">
          <mxGeometry x="530" y="80" width="40" height="25" as="geometry" />
        </mxCell>
        <mxCell id="bg21X9tkaUSZAUKivtD--43" value="Tesorería" style="rounded=0;whiteSpace=wrap;html=1;fontSize=5;" parent="1" vertex="1">
          <mxGeometry x="485" y="80" width="40" height="25" as="geometry" />
        </mxCell>
        <mxCell id="bg21X9tkaUSZAUKivtD--44" value="" style="endArrow=none;html=1;rounded=0;" parent="1" edge="1">
          <mxGeometry width="50" height="50" relative="1" as="geometry">
            <mxPoint x="265" y="35" as="sourcePoint" />
            <mxPoint x="550" y="35" as="targetPoint" />
            <Array as="points">
              <mxPoint x="400" y="35" />
            </Array>
          </mxGeometry>
        </mxCell>
        <mxCell id="bg21X9tkaUSZAUKivtD--45" value="" style="endArrow=none;html=1;rounded=0;exitX=0.5;exitY=0;exitDx=0;exitDy=0;" parent="1" source="bg21X9tkaUSZAUKivtD--39" edge="1">
          <mxGeometry width="50" height="50" relative="1" as="geometry">
            <mxPoint x="425" y="125" as="sourcePoint" />
            <mxPoint x="265" y="35" as="targetPoint" />
          </mxGeometry>
        </mxCell>
        <mxCell id="bg21X9tkaUSZAUKivtD--46" value="" style="endArrow=none;html=1;rounded=0;exitX=0.5;exitY=0;exitDx=0;exitDy=0;" parent="1" source="bg21X9tkaUSZAUKivtD--37" edge="1">
          <mxGeometry width="50" height="50" relative="1" as="geometry">
            <mxPoint x="395" y="125" as="sourcePoint" />
            <mxPoint x="355" y="35" as="targetPoint" />
          </mxGeometry>
        </mxCell>
        <mxCell id="bg21X9tkaUSZAUKivtD--47" value="" style="endArrow=none;html=1;rounded=0;" parent="1" edge="1">
          <mxGeometry width="50" height="50" relative="1" as="geometry">
            <mxPoint x="435" y="40" as="sourcePoint" />
            <mxPoint x="435" y="35" as="targetPoint" />
          </mxGeometry>
        </mxCell>
        <mxCell id="bg21X9tkaUSZAUKivtD--48" value="" style="endArrow=none;html=1;rounded=0;exitX=0.5;exitY=0;exitDx=0;exitDy=0;" parent="1" source="bg21X9tkaUSZAUKivtD--40" edge="1">
          <mxGeometry width="50" height="50" relative="1" as="geometry">
            <mxPoint x="370" y="125" as="sourcePoint" />
            <mxPoint x="550" y="35" as="targetPoint" />
          </mxGeometry>
        </mxCell>
        <mxCell id="bg21X9tkaUSZAUKivtD--49" value="" style="endArrow=none;html=1;rounded=0;entryX=0.367;entryY=0.987;entryDx=0;entryDy=0;entryPerimeter=0;" parent="1" target="bg21X9tkaUSZAUKivtD--39" edge="1">
          <mxGeometry width="50" height="50" relative="1" as="geometry">
            <mxPoint x="260" y="194.66" as="sourcePoint" />
            <mxPoint x="260" y="84.66" as="targetPoint" />
          </mxGeometry>
        </mxCell>
        <mxCell id="bg21X9tkaUSZAUKivtD--51" value="" style="endArrow=none;html=1;rounded=0;entryX=0;entryY=0.75;entryDx=0;entryDy=0;" parent="1" target="bg21X9tkaUSZAUKivtD--16" edge="1">
          <mxGeometry width="50" height="50" relative="1" as="geometry">
            <mxPoint x="260" y="108.66" as="sourcePoint" />
            <mxPoint x="275" y="104.66" as="targetPoint" />
          </mxGeometry>
        </mxCell>
        <mxCell id="bg21X9tkaUSZAUKivtD--54" value="" style="endArrow=none;html=1;rounded=0;entryX=0.133;entryY=1.013;entryDx=0;entryDy=0;entryPerimeter=0;" parent="1" target="bg21X9tkaUSZAUKivtD--37" edge="1">
          <mxGeometry width="50" height="50" relative="1" as="geometry">
            <mxPoint x="340" y="124.66" as="sourcePoint" />
            <mxPoint x="340.32000000000005" y="79.66" as="targetPoint" />
          </mxGeometry>
        </mxCell>
        <mxCell id="bg21X9tkaUSZAUKivtD--56" value="" style="endArrow=none;html=1;rounded=0;entryX=0.158;entryY=1;entryDx=0;entryDy=0;entryPerimeter=0;" parent="1" target="bg21X9tkaUSZAUKivtD--41" edge="1">
          <mxGeometry width="50" height="50" relative="1" as="geometry">
            <mxPoint x="420" y="130" as="sourcePoint" />
            <mxPoint x="422.67999999999995" y="80.33499999999972" as="targetPoint" />
          </mxGeometry>
        </mxCell>
        <mxCell id="bg21X9tkaUSZAUKivtD--58" value="" style="endArrow=none;html=1;rounded=0;" parent="1" edge="1">
          <mxGeometry width="50" height="50" relative="1" as="geometry">
            <mxPoint x="432" y="99.66" as="sourcePoint" />
            <mxPoint x="420" y="100" as="targetPoint" />
          </mxGeometry>
        </mxCell>
        <mxCell id="bg21X9tkaUSZAUKivtD--60" value="" style="endArrow=none;html=1;rounded=0;entryX=0.5;entryY=1;entryDx=0;entryDy=0;" parent="1" target="bg21X9tkaUSZAUKivtD--40" edge="1">
          <mxGeometry width="50" height="50" relative="1" as="geometry">
            <mxPoint x="550" y="75" as="sourcePoint" />
            <mxPoint x="575" y="105" as="targetPoint" />
          </mxGeometry>
        </mxCell>
        <mxCell id="bg21X9tkaUSZAUKivtD--61" value="" style="endArrow=none;html=1;rounded=0;entryX=0.5;entryY=1;entryDx=0;entryDy=0;exitX=0.5;exitY=0;exitDx=0;exitDy=0;" parent="1" source="bg21X9tkaUSZAUKivtD--43" target="bg21X9tkaUSZAUKivtD--40" edge="1">
          <mxGeometry width="50" height="50" relative="1" as="geometry">
            <mxPoint x="505" y="75" as="sourcePoint" />
            <mxPoint x="500" y="70" as="targetPoint" />
            <Array as="points" />
          </mxGeometry>
        </mxCell>
        <mxCell id="bg21X9tkaUSZAUKivtD--62" value="" style="endArrow=none;html=1;rounded=0;exitX=0.5;exitY=0;exitDx=0;exitDy=0;" parent="1" source="bg21X9tkaUSZAUKivtD--42" edge="1">
          <mxGeometry width="50" height="50" relative="1" as="geometry">
            <mxPoint x="495" y="150" as="sourcePoint" />
            <mxPoint x="550" y="70" as="targetPoint" />
          </mxGeometry>
        </mxCell>
        <mxCell id="bg21X9tkaUSZAUKivtD--73" value="Ventas" style="rounded=0;whiteSpace=wrap;html=1;fontSize=5;" parent="1" vertex="1">
          <mxGeometry x="432.5" y="114.66" width="40" height="25" as="geometry" />
        </mxCell>
        <mxCell id="bg21X9tkaUSZAUKivtD--74" value="Antinflamatorios" style="rounded=0;whiteSpace=wrap;html=1;fontSize=5;" parent="1" vertex="1">
          <mxGeometry x="385" y="154.66" width="40" height="25" as="geometry" />
        </mxCell>
        <mxCell id="bg21X9tkaUSZAUKivtD--75" value="Antiparasitarios" style="rounded=0;whiteSpace=wrap;html=1;fontSize=5;" parent="1" vertex="1">
          <mxGeometry x="480" y="154.66" width="40" height="25" as="geometry" />
        </mxCell>
        <mxCell id="bg21X9tkaUSZAUKivtD--76" value="" style="endArrow=none;html=1;rounded=0;entryX=0.5;entryY=1;entryDx=0;entryDy=0;exitX=0.5;exitY=0;exitDx=0;exitDy=0;" parent="1" source="bg21X9tkaUSZAUKivtD--74" target="bg21X9tkaUSZAUKivtD--73" edge="1">
          <mxGeometry width="50" height="50" relative="1" as="geometry">
            <mxPoint x="395" y="159.66" as="sourcePoint" />
            <mxPoint x="445" y="109.66" as="targetPoint" />
          </mxGeometry>
        </mxCell>
        <mxCell id="bg21X9tkaUSZAUKivtD--77" value="" style="endArrow=none;html=1;rounded=0;entryX=0.5;entryY=1;entryDx=0;entryDy=0;exitX=0.5;exitY=0;exitDx=0;exitDy=0;" parent="1" source="bg21X9tkaUSZAUKivtD--75" target="bg21X9tkaUSZAUKivtD--73" edge="1">
          <mxGeometry width="50" height="50" relative="1" as="geometry">
            <mxPoint x="395" y="159.66" as="sourcePoint" />
            <mxPoint x="445" y="109.66" as="targetPoint" />
          </mxGeometry>
        </mxCell>
        <mxCell id="bg21X9tkaUSZAUKivtD--79" value="Fabricación" style="rounded=0;whiteSpace=wrap;html=1;fontSize=5;" parent="1" vertex="1">
          <mxGeometry x="270" y="179.66" width="40" height="25" as="geometry" />
        </mxCell>
        <mxCell id="bg21X9tkaUSZAUKivtD--81" value="Productos medicinales" style="rounded=0;whiteSpace=wrap;html=1;fontSize=5;" parent="1" vertex="1">
          <mxGeometry x="225" y="220" width="40" height="25" as="geometry" />
        </mxCell>
        <mxCell id="bg21X9tkaUSZAUKivtD--82" value="Productos químicos (rama rural)" style="rounded=0;whiteSpace=wrap;html=1;fontSize=5;" parent="1" vertex="1">
          <mxGeometry x="315" y="220" width="40" height="25" as="geometry" />
        </mxCell>
        <mxCell id="bg21X9tkaUSZAUKivtD--85" value="Cosméticos y perfumería" style="rounded=0;whiteSpace=wrap;html=1;fontSize=5;" parent="1" vertex="1">
          <mxGeometry x="270" y="220" width="40" height="25" as="geometry" />
        </mxCell>
        <mxCell id="bg21X9tkaUSZAUKivtD--86" value="" style="endArrow=none;html=1;rounded=0;entryX=0.5;entryY=1;entryDx=0;entryDy=0;exitX=0.5;exitY=0;exitDx=0;exitDy=0;" parent="1" source="bg21X9tkaUSZAUKivtD--82" target="bg21X9tkaUSZAUKivtD--79" edge="1">
          <mxGeometry width="50" height="50" relative="1" as="geometry">
            <mxPoint x="300" y="209.66" as="sourcePoint" />
            <mxPoint x="354" y="219.66" as="targetPoint" />
          </mxGeometry>
        </mxCell>
        <mxCell id="bg21X9tkaUSZAUKivtD--87" value="" style="endArrow=none;html=1;rounded=0;exitX=0.5;exitY=0;exitDx=0;exitDy=0;" parent="1" source="bg21X9tkaUSZAUKivtD--8" edge="1">
          <mxGeometry width="50" height="50" relative="1" as="geometry">
            <mxPoint x="490" y="120" as="sourcePoint" />
            <mxPoint x="550" y="65" as="targetPoint" />
          </mxGeometry>
        </mxCell>
        <mxCell id="kjkgU98nhni_tzu0HvUh-3" value="" style="endArrow=none;html=1;rounded=0;exitX=0.005;exitY=0.598;exitDx=0;exitDy=0;exitPerimeter=0;" parent="1" source="bg21X9tkaUSZAUKivtD--79" edge="1">
          <mxGeometry width="50" height="50" relative="1" as="geometry">
            <mxPoint x="260" y="215.73" as="sourcePoint" />
            <mxPoint x="260" y="194.66" as="targetPoint" />
          </mxGeometry>
        </mxCell>
        <mxCell id="kjkgU98nhni_tzu0HvUh-8" value="" style="endArrow=none;html=1;rounded=0;entryX=-0.003;entryY=0.58;entryDx=0;entryDy=0;entryPerimeter=0;" parent="1" target="bg21X9tkaUSZAUKivtD--3" edge="1">
          <mxGeometry width="50" height="50" relative="1" as="geometry">
            <mxPoint x="340" y="99.66" as="sourcePoint" />
            <mxPoint x="360" y="69.66" as="targetPoint" />
          </mxGeometry>
        </mxCell>
        <mxCell id="kjkgU98nhni_tzu0HvUh-9" value="" style="endArrow=none;html=1;rounded=0;" parent="1" edge="1">
          <mxGeometry width="50" height="50" relative="1" as="geometry">
            <mxPoint x="420" y="130" as="sourcePoint" />
            <mxPoint x="432" y="129.66" as="targetPoint" />
          </mxGeometry>
        </mxCell>
        <mxCell id="kjkgU98nhni_tzu0HvUh-11" value="" style="endArrow=none;html=1;rounded=0;exitX=0;exitY=0.75;exitDx=0;exitDy=0;" parent="1" source="bg21X9tkaUSZAUKivtD--10" edge="1">
          <mxGeometry width="50" height="50" relative="1" as="geometry">
            <mxPoint x="275" y="139.66" as="sourcePoint" />
            <mxPoint x="260" y="138.66" as="targetPoint" />
          </mxGeometry>
        </mxCell>
        <mxCell id="kjkgU98nhni_tzu0HvUh-12" value="Antibioticos" style="rounded=0;whiteSpace=wrap;html=1;fontSize=5;" parent="1" vertex="1">
          <mxGeometry x="432.5" y="154.66" width="40" height="25" as="geometry" />
        </mxCell>
        <mxCell id="kjkgU98nhni_tzu0HvUh-13" value="" style="endArrow=none;html=1;rounded=0;exitX=0.5;exitY=0;exitDx=0;exitDy=0;" parent="1" source="kjkgU98nhni_tzu0HvUh-12" edge="1">
          <mxGeometry width="50" height="50" relative="1" as="geometry">
            <mxPoint x="402" y="154.66" as="sourcePoint" />
            <mxPoint x="452" y="139.66" as="targetPoint" />
          </mxGeometry>
        </mxCell>
        <mxCell id="kjkgU98nhni_tzu0HvUh-14" value="Personal" style="rounded=0;whiteSpace=wrap;html=1;fontSize=5;" parent="1" vertex="1">
          <mxGeometry x="350" y="114.66" width="40" height="25" as="geometry" />
        </mxCell>
        <mxCell id="kjkgU98nhni_tzu0HvUh-15" value="" style="endArrow=none;html=1;rounded=0;entryX=-0.017;entryY=0.4;entryDx=0;entryDy=0;entryPerimeter=0;" parent="1" target="kjkgU98nhni_tzu0HvUh-14" edge="1">
          <mxGeometry width="50" height="50" relative="1" as="geometry">
            <mxPoint x="340" y="124.66" as="sourcePoint" />
            <mxPoint x="450" y="84.66" as="targetPoint" />
          </mxGeometry>
        </mxCell>
        <mxCell id="kjkgU98nhni_tzu0HvUh-17" value="" style="endArrow=none;html=1;rounded=0;exitX=-0.01;exitY=0.64;exitDx=0;exitDy=0;exitPerimeter=0;" parent="1" source="bg21X9tkaUSZAUKivtD--9" edge="1">
          <mxGeometry width="50" height="50" relative="1" as="geometry">
            <mxPoint x="210" y="144.66" as="sourcePoint" />
            <mxPoint x="260" y="165.66" as="targetPoint" />
          </mxGeometry>
        </mxCell>
        <mxCell id="kjkgU98nhni_tzu0HvUh-18" value="" style="endArrow=none;html=1;rounded=0;exitX=0.5;exitY=0;exitDx=0;exitDy=0;entryX=0.5;entryY=1;entryDx=0;entryDy=0;" parent="1" source="bg21X9tkaUSZAUKivtD--81" target="bg21X9tkaUSZAUKivtD--79" edge="1">
          <mxGeometry width="50" height="50" relative="1" as="geometry">
            <mxPoint x="285" y="204.66" as="sourcePoint" />
            <mxPoint x="335" y="154.66" as="targetPoint" />
          </mxGeometry>
        </mxCell>
        <mxCell id="kjkgU98nhni_tzu0HvUh-19" value="" style="endArrow=none;html=1;rounded=0;exitX=0.5;exitY=0;exitDx=0;exitDy=0;" parent="1" source="bg21X9tkaUSZAUKivtD--85" edge="1">
          <mxGeometry width="50" height="50" relative="1" as="geometry">
            <mxPoint x="285" y="204.66" as="sourcePoint" />
            <mxPoint x="290" y="204.66" as="targetPoint" />
          </mxGeometry>
        </mxCell>
        <mxCell id="kjkgU98nhni_tzu0HvUh-20" value="" style="endArrow=none;dashed=1;html=1;strokeWidth=1;rounded=0;strokeColor=#f20202;" parent="1" edge="1">
          <mxGeometry width="50" height="50" relative="1" as="geometry">
            <mxPoint x="220" y="50" as="sourcePoint" />
            <mxPoint x="245" y="50" as="targetPoint" />
          </mxGeometry>
        </mxCell>
        <mxCell id="kjkgU98nhni_tzu0HvUh-21" value="Ing. Químico" style="rounded=0;whiteSpace=wrap;html=1;fontSize=5;strokeColor=#f20202;dashed=1;" parent="1" vertex="1">
          <mxGeometry x="180" y="40" width="40" height="25" as="geometry" />
        </mxCell>
        <mxCell id="kjkgU98nhni_tzu0HvUh-23" value="Depósito y entrega de materia prima" style="rounded=0;whiteSpace=wrap;html=1;fontSize=5;" parent="1" vertex="1">
          <mxGeometry x="530" y="114.66" width="40" height="25" as="geometry" />
        </mxCell>
        <mxCell id="kjkgU98nhni_tzu0HvUh-24" value="" style="endArrow=none;html=1;rounded=0;exitX=0.5;exitY=1;exitDx=0;exitDy=0;entryX=0.5;entryY=0;entryDx=0;entryDy=0;" parent="1" source="bg21X9tkaUSZAUKivtD--42" target="kjkgU98nhni_tzu0HvUh-23" edge="1">
          <mxGeometry width="50" height="50" relative="1" as="geometry">
            <mxPoint x="500" y="160" as="sourcePoint" />
            <mxPoint x="550" y="105" as="targetPoint" />
          </mxGeometry>
        </mxCell>
        <mxCell id="_p1wxM1caos8j-7episv-3" value="&lt;h6&gt;&lt;font color=&quot;#fc0303&quot; style=&quot;font-size: 6px;&quot;&gt;por función&lt;/font&gt;&lt;/h6&gt;" style="text;html=1;strokeColor=none;fillColor=none;align=center;verticalAlign=middle;whiteSpace=wrap;rounded=0;fontSize=20;fontFamily=Architects Daughter;" parent="1" vertex="1">
          <mxGeometry x="420" y="70" width="55" height="5" as="geometry" />
        </mxCell>
        <mxCell id="_p1wxM1caos8j-7episv-4" value="&lt;h6&gt;&lt;font color=&quot;#fc0303&quot; style=&quot;font-size: 6px;&quot;&gt;por función&lt;/font&gt;&lt;/h6&gt;" style="text;html=1;strokeColor=none;fillColor=none;align=center;verticalAlign=middle;whiteSpace=wrap;rounded=0;fontSize=20;fontFamily=Architects Daughter;" parent="1" vertex="1">
          <mxGeometry x="335" y="70" width="55" height="5" as="geometry" />
        </mxCell>
        <mxCell id="_p1wxM1caos8j-7episv-7" value="&lt;h6&gt;&lt;font color=&quot;#fc0303&quot; style=&quot;font-size: 6px;&quot;&gt;por función&lt;/font&gt;&lt;/h6&gt;" style="text;html=1;strokeColor=none;fillColor=none;align=center;verticalAlign=middle;whiteSpace=wrap;rounded=0;fontSize=20;fontFamily=Architects Daughter;" parent="1" vertex="1">
          <mxGeometry x="255" y="70" width="55" height="5" as="geometry" />
        </mxCell>
        <mxCell id="_p1wxM1caos8j-7episv-8" value="&lt;h6&gt;&lt;font color=&quot;#fc0303&quot; style=&quot;font-size: 6px;&quot;&gt;por producto&lt;/font&gt;&lt;/h6&gt;" style="text;html=1;strokeColor=none;fillColor=none;align=center;verticalAlign=middle;whiteSpace=wrap;rounded=0;fontSize=20;fontFamily=Architects Daughter;" parent="1" vertex="1">
          <mxGeometry x="307.5" y="204.66" width="55" height="5" as="geometry" />
        </mxCell>
        <mxCell id="_p1wxM1caos8j-7episv-9" value="&lt;h6&gt;&lt;font color=&quot;#3333ff&quot; style=&quot;font-size: 6px;&quot;&gt;staff&lt;/font&gt;&lt;/h6&gt;" style="text;html=1;strokeColor=none;fillColor=none;align=center;verticalAlign=middle;whiteSpace=wrap;rounded=0;fontSize=20;fontFamily=Architects Daughter;" parent="1" vertex="1">
          <mxGeometry x="172.5" y="25" width="55" height="5" as="geometry" />
        </mxCell>
        <mxCell id="_p1wxM1caos8j-7episv-15" value="&lt;h6&gt;&lt;font color=&quot;#fc0303&quot; style=&quot;font-size: 6px;&quot;&gt;por función&lt;/font&gt;&lt;/h6&gt;" style="text;html=1;strokeColor=none;fillColor=none;align=center;verticalAlign=middle;whiteSpace=wrap;rounded=0;fontSize=20;fontFamily=Architects Daughter;" parent="1" vertex="1">
          <mxGeometry x="567.5" y="65" width="55" height="5" as="geometry" />
        </mxCell>
        <mxCell id="_p1wxM1caos8j-7episv-16" value="&lt;h6&gt;&lt;font style=&quot;font-size: 6px;&quot;&gt;Autoridad lineal&lt;/font&gt;&lt;/h6&gt;" style="text;html=1;strokeColor=none;fillColor=none;align=center;verticalAlign=middle;whiteSpace=wrap;rounded=0;fontSize=20;fontFamily=Architects Daughter;fontColor=#3333FF;" parent="1" vertex="1">
          <mxGeometry x="477.5" y="25" width="55" height="5" as="geometry" />
        </mxCell>
        <mxCell id="_p1wxM1caos8j-7episv-17" value="&lt;h6&gt;&lt;font color=&quot;#fc0303&quot; style=&quot;font-size: 6px;&quot;&gt;por producto&lt;/font&gt;&lt;/h6&gt;" style="text;html=1;strokeColor=none;fillColor=none;align=center;verticalAlign=middle;whiteSpace=wrap;rounded=0;fontSize=20;fontFamily=Architects Daughter;" parent="1" vertex="1">
          <mxGeometry x="472.5" y="139.66" width="55" height="5" as="geometry" />
        </mxCell>
      </root>
    </mxGraphModel>
  </diagram>
</mxfile>
